<svg xmlns="http://www.w3.org/2000/svg" xmlns:xlink="http://www.w3.org/1999/xlink" width="500" zoomAndPan="magnify" viewBox="0 0 375 374.999991" height="500" preserveAspectRatio="xMidYMid meet" version="1.0"><defs><clipPath id="cef4122231"><path d="M 84 57.707031 L 161 57.707031 L 161 135 L 84 135 Z M 84 57.707031 " clip-rule="nonzero"/></clipPath><clipPath id="add4716d23"><path d="M 214 240 L 291 240 L 291 317.207031 L 214 317.207031 Z M 214 240 " clip-rule="nonzero"/></clipPath><clipPath id="6a8fa91428"><path d="M 79.285156 59 L 296 59 L 296 237 L 79.285156 237 Z M 79.285156 59 " clip-rule="nonzero"/></clipPath><clipPath id="5d2884f417"><path d="M 79.285156 138 L 296 138 L 296 316 L 79.285156 316 Z M 79.285156 138 " clip-rule="nonzero"/></clipPath></defs><g clip-path="url(#cef4122231)"><path fill="#2563eb" d="M 160.890625 95.910156 C 160.890625 97.160156 160.828125 98.410156 160.707031 99.65625 C 160.582031 100.898438 160.402344 102.136719 160.15625 103.363281 C 159.914062 104.589844 159.609375 105.804688 159.246094 107 C 158.882812 108.199219 158.460938 109.375 157.984375 110.53125 C 157.503906 111.6875 156.96875 112.816406 156.378906 113.917969 C 155.789062 115.023438 155.148438 116.09375 154.453125 117.132812 C 153.757812 118.175781 153.011719 119.179688 152.21875 120.144531 C 151.425781 121.113281 150.585938 122.039062 149.703125 122.921875 C 148.816406 123.808594 147.890625 124.648438 146.921875 125.441406 C 145.957031 126.234375 144.953125 126.980469 143.914062 127.675781 C 142.871094 128.371094 141.800781 129.011719 140.695312 129.601562 C 139.59375 130.191406 138.464844 130.726562 137.308594 131.203125 C 136.152344 131.683594 134.976562 132.105469 133.777344 132.46875 C 132.582031 132.832031 131.367188 133.132812 130.140625 133.378906 C 128.914062 133.621094 127.679688 133.804688 126.433594 133.929688 C 125.1875 134.050781 123.941406 134.113281 122.6875 134.113281 C 121.4375 134.113281 120.1875 134.050781 118.945312 133.929688 C 117.699219 133.804688 116.460938 133.621094 115.234375 133.378906 C 114.007812 133.132812 112.796875 132.832031 111.597656 132.46875 C 110.402344 132.105469 109.226562 131.683594 108.070312 131.203125 C 106.914062 130.726562 105.785156 130.191406 104.679688 129.601562 C 103.578125 129.011719 102.503906 128.371094 101.464844 127.675781 C 100.425781 126.980469 99.421875 126.234375 98.453125 125.441406 C 97.488281 124.648438 96.558594 123.808594 95.675781 122.921875 C 94.792969 122.039062 93.953125 121.113281 93.15625 120.144531 C 92.363281 119.179688 91.621094 118.175781 90.925781 117.132812 C 90.230469 116.09375 89.585938 115.023438 88.996094 113.917969 C 88.40625 112.816406 87.875 111.6875 87.394531 110.53125 C 86.914062 109.375 86.496094 108.199219 86.132812 107 C 85.769531 105.804688 85.464844 104.589844 85.222656 103.363281 C 84.976562 102.136719 84.792969 100.898438 84.671875 99.65625 C 84.546875 98.410156 84.488281 97.160156 84.488281 95.910156 C 84.488281 94.660156 84.546875 93.410156 84.671875 92.167969 C 84.792969 90.921875 84.976562 89.683594 85.222656 88.457031 C 85.464844 87.230469 85.769531 86.019531 86.132812 84.820312 C 86.496094 83.625 86.914062 82.449219 87.394531 81.292969 C 87.875 80.136719 88.40625 79.003906 88.996094 77.902344 C 89.585938 76.800781 90.230469 75.726562 90.925781 74.6875 C 91.621094 73.648438 92.363281 72.644531 93.15625 71.675781 C 93.953125 70.707031 94.792969 69.78125 95.675781 68.898438 C 96.558594 68.011719 97.488281 67.175781 98.453125 66.378906 C 99.421875 65.585938 100.425781 64.84375 101.464844 64.148438 C 102.503906 63.453125 103.578125 62.808594 104.679688 62.21875 C 105.785156 61.628906 106.914062 61.09375 108.070312 60.617188 C 109.226562 60.136719 110.402344 59.71875 111.597656 59.355469 C 112.796875 58.992188 114.007812 58.6875 115.234375 58.441406 C 116.460938 58.199219 117.699219 58.015625 118.945312 57.894531 C 120.1875 57.769531 121.4375 57.707031 122.6875 57.707031 C 123.941406 57.707031 125.1875 57.769531 126.433594 57.894531 C 127.679688 58.015625 128.914062 58.199219 130.140625 58.441406 C 131.367188 58.6875 132.582031 58.992188 133.777344 59.355469 C 134.976562 59.71875 136.152344 60.136719 137.308594 60.617188 C 138.464844 61.09375 139.59375 61.628906 140.695312 62.21875 C 141.800781 62.808594 142.871094 63.453125 143.914062 64.148438 C 144.953125 64.84375 145.957031 65.585938 146.921875 66.378906 C 147.890625 67.175781 148.816406 68.011719 149.703125 68.898438 C 150.585938 69.78125 151.425781 70.707031 152.21875 71.675781 C 153.011719 72.644531 153.757812 73.648438 154.453125 74.6875 C 155.148438 75.726562 155.789062 76.800781 156.378906 77.902344 C 156.96875 79.003906 157.503906 80.136719 157.984375 81.292969 C 158.460938 82.449219 158.882812 83.625 159.246094 84.820312 C 159.609375 86.019531 159.914062 87.230469 160.15625 88.457031 C 160.402344 89.683594 160.582031 90.921875 160.707031 92.167969 C 160.828125 93.410156 160.890625 94.660156 160.890625 95.910156 Z M 160.890625 95.910156 " fill-opacity="1" fill-rule="nonzero"/></g><g clip-path="url(#add4716d23)"><path fill="#2563eb" d="M 290.492188 279.089844 C 290.492188 280.339844 290.433594 281.589844 290.308594 282.832031 C 290.1875 284.078125 290.003906 285.316406 289.761719 286.542969 C 289.515625 287.769531 289.210938 288.980469 288.847656 290.179688 C 288.484375 291.375 288.066406 292.550781 287.585938 293.707031 C 287.105469 294.863281 286.574219 295.992188 285.984375 297.097656 C 285.394531 298.199219 284.75 299.273438 284.054688 300.3125 C 283.359375 301.351562 282.617188 302.355469 281.824219 303.324219 C 281.027344 304.292969 280.191406 305.21875 279.304688 306.101562 C 278.421875 306.988281 277.496094 307.824219 276.527344 308.621094 C 275.558594 309.414062 274.554688 310.15625 273.515625 310.851562 C 272.476562 311.546875 271.402344 312.191406 270.300781 312.78125 C 269.195312 313.371094 268.066406 313.902344 266.910156 314.382812 C 265.753906 314.863281 264.578125 315.28125 263.382812 315.644531 C 262.183594 316.007812 260.972656 316.3125 259.746094 316.558594 C 258.519531 316.800781 257.28125 316.984375 256.035156 317.105469 C 254.792969 317.230469 253.542969 317.289062 252.292969 317.289062 C 251.039062 317.289062 249.792969 317.230469 248.546875 317.105469 C 247.300781 316.984375 246.066406 316.800781 244.839844 316.558594 C 243.613281 316.3125 242.398438 316.007812 241.203125 315.644531 C 240.003906 315.28125 238.828125 314.863281 237.671875 314.382812 C 236.515625 313.902344 235.386719 313.371094 234.285156 312.78125 C 233.179688 312.191406 232.109375 311.546875 231.066406 310.851562 C 230.027344 310.15625 229.023438 309.414062 228.058594 308.621094 C 227.089844 307.824219 226.164062 306.988281 225.28125 306.101562 C 224.394531 305.21875 223.554688 304.292969 222.761719 303.324219 C 221.96875 302.355469 221.222656 301.351562 220.527344 300.3125 C 219.832031 299.273438 219.191406 298.199219 218.601562 297.097656 C 218.011719 295.992188 217.476562 294.863281 217 293.707031 C 216.519531 292.550781 216.097656 291.375 215.734375 290.179688 C 215.371094 288.980469 215.070312 287.769531 214.824219 286.542969 C 214.582031 285.316406 214.398438 284.078125 214.273438 282.832031 C 214.152344 281.589844 214.089844 280.339844 214.089844 279.089844 C 214.089844 277.835938 214.152344 276.589844 214.273438 275.34375 C 214.398438 274.097656 214.582031 272.863281 214.824219 271.636719 C 215.070312 270.410156 215.371094 269.195312 215.734375 268 C 216.097656 266.800781 216.519531 265.625 217 264.46875 C 217.476562 263.3125 218.011719 262.183594 218.601562 261.082031 C 219.191406 259.976562 219.832031 258.90625 220.527344 257.863281 C 221.222656 256.824219 221.96875 255.820312 222.761719 254.855469 C 223.554688 253.886719 224.394531 252.960938 225.28125 252.078125 C 226.164062 251.191406 227.089844 250.351562 228.058594 249.558594 C 229.023438 248.765625 230.027344 248.019531 231.066406 247.324219 C 232.109375 246.628906 233.179688 245.988281 234.285156 245.398438 C 235.386719 244.808594 236.515625 244.273438 237.671875 243.796875 C 238.828125 243.316406 240.003906 242.894531 241.203125 242.53125 C 242.398438 242.167969 243.613281 241.867188 244.839844 241.621094 C 246.066406 241.378906 247.300781 241.195312 248.546875 241.070312 C 249.792969 240.949219 251.039062 240.886719 252.292969 240.886719 C 253.542969 240.886719 254.792969 240.949219 256.035156 241.070312 C 257.28125 241.195312 258.519531 241.378906 259.746094 241.621094 C 260.972656 241.867188 262.183594 242.167969 263.382812 242.53125 C 264.578125 242.894531 265.753906 243.316406 266.910156 243.796875 C 268.066406 244.273438 269.195312 244.808594 270.300781 245.398438 C 271.402344 245.988281 272.476562 246.628906 273.515625 247.324219 C 274.554688 248.019531 275.558594 248.765625 276.527344 249.558594 C 277.496094 250.351562 278.421875 251.191406 279.304688 252.078125 C 280.191406 252.960938 281.027344 253.886719 281.824219 254.855469 C 282.617188 255.820312 283.359375 256.824219 284.054688 257.863281 C 284.75 258.90625 285.394531 259.976562 285.984375 261.082031 C 286.574219 262.183594 287.105469 263.3125 287.585938 264.46875 C 288.066406 265.625 288.484375 266.800781 288.847656 268 C 289.210938 269.195312 289.515625 270.410156 289.761719 271.636719 C 290.003906 272.863281 290.1875 274.097656 290.308594 275.34375 C 290.433594 276.589844 290.492188 277.835938 290.492188 279.089844 Z M 290.492188 279.089844 " fill-opacity="1" fill-rule="nonzero"/></g><g clip-path="url(#6a8fa91428)"><path fill="#2563eb" d="M 79.339844 185.582031 L 79.339844 236.230469 L 295.65625 109.941406 L 295.65625 59.324219 Z M 79.339844 185.582031 " fill-opacity="1" fill-rule="nonzero"/></g><g clip-path="url(#5d2884f417)"><path fill="#2563eb" d="M 79.339844 315.746094 L 295.65625 189.460938 L 295.65625 138.871094 L 79.339844 265.128906 Z M 79.339844 315.746094 " fill-opacity="1" fill-rule="nonzero"/></g></svg>